<svg xmlns="http://www.w3.org/2000/svg" viewBox="0 0 32 40" x="0px" y="0px">
    <title>73 rocket</title>
    <g>
        <path
                d="M17,25v4a1,1,0,0,1-2,0V25a1,1,0,0,1,2,0ZM9,17.87a13.51,13.51,0,0,0-5.93,6.76A1,1,0,0,0,4,26H9.13A3.66,3.66,0,0,1,9,25Zm19.93,6.76A13.51,13.51,0,0,0,23,17.87V25a3.66,3.66,0,0,1-.13,1H28a1,1,0,0,0,.93-1.37ZM16.71,2.29A18,18,0,0,1,22,15.07V25a3,3,0,0,1-3,3H18V25a2,2,0,0,0-4,0v3H13a3,3,0,0,1-3-3V15.07A18,18,0,0,1,15.29,2.29,1,1,0,0,1,16.71,2.29ZM16,10a2,2,0,1,0,2,2A2,2,0,0,0,16,10Z"/>
    </g>
</svg>
